<!-- icon666.com - MILLIONS vector ICONS FREE --><svg id="Слой_1" enable-background="new 0 0 512 512" viewBox="0 0 512 512" xmlns="http://www.w3.org/2000/svg"><g fill="rgb(0,0,0)"><path d="m350.061 256.003c.011-25.416-13.216-48.03-35.368-60.495l-211.267-118.834c-21.711-12.222-47.534-12.002-69.064.576-21.507 12.59-34.362 34.984-34.362 59.914v237.672c0 24.93 12.855 47.324 34.362 59.908 10.934 6.394 22.976 9.596 35.029 9.596 11.669 0 23.349-3.005 34.035-9.014l211.268-118.839c22.151-12.454 35.367-35.068 35.367-60.484zm-58.05 20.158-211.268 118.839c-10.437 5.874-19.576 1.819-23.021-.192-3.445-2.016-11.454-7.992-11.454-19.971v-237.673c0-11.979 8.009-17.955 11.454-19.971 2.124-1.237 6.382-3.248 11.782-3.248 3.377 0 7.218.791 11.239 3.055l211.268 118.833c10.641 5.987 11.782 16.097 11.782 20.169 0 4.068-1.141 14.172-11.782 20.159z"></path><path d="m476.632 195.508-214.656-120.743c-11.16-6.264-25.258-2.321-31.516 8.822-6.258 11.138-2.304 25.241 8.833 31.504l214.657 120.743c10.641 5.987 11.782 16.097 11.782 20.169 0 4.067-1.141 14.171-11.782 20.158l-214.657 120.748c-11.138 6.264-15.091 20.367-8.833 31.504 4.247 7.551 12.109 11.799 20.197 11.799 3.841 0 7.726-.96 11.319-2.976l214.657-120.748c22.151-12.455 35.367-35.069 35.367-60.485.011-25.416-13.216-48.03-35.368-60.495z"></path></g></svg>