<!-- icon666.com - MILLIONS vector ICONS FREE --><svg id="Слой_1" enable-background="new 0 0 512 512" viewBox="0 0 512 512" xmlns="http://www.w3.org/2000/svg"><g fill="rgb(0,0,0)"><path d="m170.667 0h-113.778c-31.361 0-56.889 25.521-56.889 56.889v398.222c0 31.368 25.528 56.889 56.889 56.889h113.778c31.361 0 56.889-25.521 56.889-56.889v-398.222c0-31.368-25.528-56.889-56.889-56.889zm-113.778 455.111v-398.222h113.778l.028 398.222z"></path><path d="m455.111 0h-113.778c-31.361 0-56.889 25.521-56.889 56.889v398.222c0 31.368 25.528 56.889 56.889 56.889h113.778c31.361 0 56.889-25.521 56.889-56.889v-398.222c0-31.368-25.528-56.889-56.889-56.889zm-113.778 455.111v-398.222h113.778l.028 398.222z"></path></g></svg>