<!-- icon666.com - MILLIONS vector ICONS FREE --><svg id="Слой_1" enable-background="new 0 0 512 512" viewBox="0 0 512 512" xmlns="http://www.w3.org/2000/svg"><g><path d="m448.327 179.228-298.29-167.789c-27.569-15.511-60.352-15.231-87.647.737-27.324 15.975-43.619 44.404-43.619 76.04v335.57c0 31.636 16.296 60.065 43.619 76.04 13.866 8.114 29.152 12.174 44.465 12.174 14.795 0 29.616-3.808 43.182-11.437l298.291-167.788c28.115-15.818 44.902-44.513 44.902-76.77-.001-32.265-16.788-60.959-44.903-76.777zm-27.405 104.823-298.29 167.788c-14.521 8.168-27.241 2.539-32.018-.273-4.804-2.798-15.941-11.116-15.941-27.781v-335.569c0-16.664 11.137-24.983 15.941-27.781 2.948-1.727 8.871-4.518 16.391-4.518 4.708 0 10.031 1.099 15.627 4.244l298.291 167.788c14.822 8.325 16.405 22.389 16.405 28.053-.001 5.659-1.584 19.724-16.406 28.049z" fill="rgb(0,0,0)"></path></g></svg>