<!-- icon666.com - MILLIONS vector ICONS FREE --><svg id="Слой_1" enable-background="new 0 0 512 512" viewBox="0 0 512 512" xmlns="http://www.w3.org/2000/svg"><g fill="rgb(0,0,0)"><path d="m477.638 77.251c-21.53-12.584-47.353-12.798-69.063-.576l-211.269 118.834c-22.151 12.465-35.379 35.079-35.368 60.495 0 25.416 13.216 48.03 35.368 60.484l211.268 118.839c10.686 6.015 22.366 9.014 34.035 9.014 12.053 0 24.094-3.202 35.029-9.596 21.507-12.583 34.362-34.978 34.362-59.908v-237.672c0-24.93-12.855-47.324-34.362-59.914zm-11.906 297.586c0 11.979-8.009 17.955-11.454 19.971-3.445 2.011-12.606 6.066-23.021.192l-211.269-118.838c-10.641-5.987-11.782-16.091-11.782-20.158 0-4.072 1.141-14.182 11.782-20.169l211.268-118.833c4.021-2.265 7.862-3.055 11.239-3.055 5.4 0 9.658 2.011 11.782 3.248 3.445 2.016 11.454 7.992 11.454 19.971v237.671z"></path><path d="m272.707 396.91-214.657-120.749c-10.641-5.987-11.782-16.091-11.782-20.158 0-4.072 1.141-14.182 11.782-20.169l214.657-120.742c11.138-6.264 15.091-20.367 8.833-31.504-6.269-11.132-20.367-15.08-31.516-8.822l-214.656 120.743c-22.152 12.465-35.379 35.079-35.368 60.495 0 25.416 13.216 48.03 35.368 60.484l214.657 120.748c3.592 2.016 7.478 2.976 11.319 2.976 8.088 0 15.95-4.247 20.197-11.799 6.257-11.137 2.303-25.24-8.834-31.503z"></path></g></svg>