<!-- icon666.com - MILLIONS vector ICONS FREE --><svg fill="none" viewBox="0 0 24 24" xmlns="http://www.w3.org/2000/svg"><g clip-rule="evenodd" fill="rgb(0,0,0)" fill-rule="evenodd"><path d="m2.64645 8.64645c.19526-.19527.51184-.19527.7071 0l2.2929 2.29285c.58578.5858.58578 1.5356 0 2.1214l-2.2929 2.2929c-.19526.1952-.51184.1952-.7071 0-.19527-.1953-.19527-.5119 0-.7072l2.29289-2.2928c.19526-.1953.19526-.5119 0-.7072l-2.29289-2.29285c-.19527-.19526-.19527-.51184 0-.7071z"></path><path d="m12.6464 8.64645c.1953-.19527.5119-.19527.7072 0l2.2928 2.29285c.5858.5858.5858 1.5356 0 2.1214l-2.2928 2.2929c-.1953.1952-.5119.1952-.7072 0-.1952-.1953-.1952-.5119 0-.7072l2.2929-2.2928c.1953-.1953.1953-.5119 0-.7072l-2.2929-2.29285c-.1952-.19526-.1952-.51184 0-.7071z"></path><path d="m5.23223 3.76777c-.58578-.58579-1.53553-.58579-2.12132 0l-.17157.17157c-.58578.58579-.58578 1.53554 0 2.12132l5.93934 5.93934-5.93934 5.9393c-.58579.5858-.58579 1.5356 0 2.1214l.17157.1715c.58579.5858 1.53554.5858 2.12132 0l6.99687-6.9969.1747-.1746c.0737-.0737.1378-.1528.1926-.2357.3843-.5821.3196-1.3735-.1926-1.8857zm-2.82842-.70711c.97631-.97631 2.55922-.97631 3.53553 0l7.17156 7.17154c.8547.8547.9608 2.1732.32 3.1438-.0917.1388-.1984.2702-.32.3918l-.1716.1715-.0031.0032-6.99686 6.9968c-.97631.9763-2.55922.9763-3.53553 0l-.17158-.1715c-.97631-.9763-.97631-2.5593 0-3.5356l5.23223-5.2322-5.23223-5.23223c-.97631-.97631-.97631-2.55922.00001-3.53553z"></path><path d="m15.2322 3.76777c-.5858-.58579-1.5355-.58579-2.1213 0l-.1716.17157c-.5857.58579-.5857 1.53554 0 2.12132l5.9394 5.93934-5.9394 5.9393c-.5857.5858-.5857 1.5356 0 2.1214l.1716.1715c.5858.5858 1.5355.5858 2.1213 0l6.9969-6.9969.1747-.1746c.0737-.0737.1378-.1528.1926-.2357.3843-.5821.3196-1.3735-.1926-1.8857zm-2.8284-.70711c.9763-.97631 2.5592-.97631 3.5355 0l7.1716 7.17154c.8547.8547.9608 2.1732.32 3.1438-.0917.1388-.1984.2702-.32.3918l-.1716.1715-.0031.0032-6.9969 6.9968c-.9763.9763-2.5592.9763-3.5355 0l-.1716-.1715c-.9763-.9763-.9763-2.5593 0-3.5356l5.2323-5.2322-5.2323-5.23223c-.9763-.97631-.9763-2.55922 0-3.53553z"></path></g></svg>