<!-- icon666.com - MILLIONS vector ICONS FREE --><svg id="Слой_1" enable-background="new 0 0 512 512" viewBox="0 0 512 512" xmlns="http://www.w3.org/2000/svg"><g fill="rgb(0,0,0)"><path d="m121.29 425.811h112.786l75.226 60.183c8.836 7.071 19.461 10.696 30.216 10.696 7.142 0 14.344-1.599 21.107-4.85 16.962-8.149 27.504-24.903 27.504-43.725v-22.304c0-13.396-10.862-24.258-24.258-24.258s-24.258 10.862-24.258 24.258v22.304l-81.871-65.501c-4.311-3.441-9.653-5.318-15.161-5.318h-121.291c-40.13 0-72.774-32.644-72.774-72.774v-97.032c0-40.13 32.644-72.774 72.774-72.774h97.032v169.806c0 13.396 10.862 24.258 24.258 24.258s24.258-10.862 24.258-24.258v-182.41l72.774-58.217v22.304c0 13.396 10.862 24.258 24.258 24.258s24.258-10.862 24.258-24.258v-22.303c0-18.821-10.542-35.576-27.504-43.725-16.962-8.173-36.624-5.917-51.323 5.845l-75.226 60.183h-112.785c-66.875 0-121.29 54.409-121.29 121.29v97.032c0 66.881 54.415 121.29 121.29 121.29z"></path><path d="m504.893 166.08c-9.464-9.476-24.838-9.476-34.302 0l-55.623 55.623-55.623-55.623c-9.464-9.476-24.838-9.476-34.302 0-9.476 9.47-9.476 24.833 0 34.302l55.623 55.623-55.623 55.623c-9.476 9.47-9.476 24.833 0 34.302 4.738 4.738 10.944 7.107 17.151 7.107s12.413-2.369 17.151-7.107l55.623-55.623 55.623 55.623c4.738 4.738 10.944 7.107 17.151 7.107s12.413-2.369 17.151-7.107c9.476-9.47 9.476-24.833 0-34.302l-55.623-55.623 55.623-55.623c9.476-9.469 9.476-24.832 0-34.302z"></path></g></svg>