<!-- icon666.com - MILLIONS vector ICONS FREE --><svg id="Слой_1" enable-background="new 0 0 512 512" viewBox="0 0 512 512" xmlns="http://www.w3.org/2000/svg"><g fill="rgb(0,0,0)"><path d="m235.858 427.104 75.799 60.641c8.904 7.125 19.609 10.777 30.446 10.777 7.197 0 14.453-1.611 21.268-4.887 17.091-8.211 27.713-25.093 27.713-44.058v-387.145c0-18.965-10.622-35.847-27.713-44.058-17.091-8.235-36.903-5.962-51.714 5.89l-75.799 60.641h-113.644c-67.385.001-122.214 54.824-122.214 122.215v97.771c0 67.391 54.829 122.214 122.214 122.214zm-186.972-122.213v-97.771c0-40.436 32.893-73.328 73.328-73.328h97.771v171.099c0 13.498 10.944 24.443 24.443 24.443s24.443-10.944 24.443-24.443v-183.798l73.328-58.66v387.146l-82.494-66c-4.344-3.467-9.727-5.359-15.277-5.359h-122.214c-40.436-.001-73.328-32.894-73.328-73.329z"></path><path d="m434.909 153.174c-9.548 9.542-9.548 25.022 0 34.564 37.643 37.643 37.643 98.893 0 136.536-9.548 9.542-9.548 25.022 0 34.564 4.774 4.774 11.028 7.161 17.282 7.161s12.508-2.387 17.282-7.161c56.703-56.703 56.703-148.96 0-205.663-9.536-9.549-25.028-9.549-34.564-.001z"></path></g></svg>